<?xml version="1.0" standalone="no"?>
<!DOCTYPE svg PUBLIC "-//W3C//DTD SVG 20010904//EN"
 "http://www.w3.org/TR/2001/REC-SVG-20010904/DTD/svg10.dtd">
<svg version="1.0" xmlns="http://www.w3.org/2000/svg"
 width="700.000000pt" height="700.000000pt" viewBox="0 0 700.000000 700.000000"
 preserveAspectRatio="xMidYMid meet">
<metadata>
Created by potrace 1.14, written by Peter Selinger 2001-2017
</metadata>
<g transform="translate(0.000000,700.000000) scale(0.100000,-0.100000)"
fill="#000000" stroke="none">
<path d="M3278 6995 c-1 -1 -42 -5 -89 -9 -47 -4 -95 -8 -105 -10 -10 -2 -45
-7 -78 -11 -101 -12 -215 -35 -380 -76 -284 -71 -592 -196 -856 -347 -85 -48
-299 -186 -339 -218 -241 -190 -261 -208 -410 -355 -209 -207 -405 -464 -561
-734 -47 -83 -170 -327 -170 -340 0 -3 -9 -24 -20 -48 -57 -123 -157 -435
-186 -582 -2 -11 -10 -54 -19 -95 -22 -115 -30 -160 -41 -255 -26 -230 -26
-667 1 -826 2 -13 6 -46 9 -74 9 -78 22 -152 51 -285 21 -96 91 -339 114 -395
5 -11 25 -65 46 -120 64 -170 213 -461 314 -615 213 -323 469 -603 771 -845
92 -74 370 -265 386 -265 4 0 15 -6 23 -14 26 -22 260 -140 387 -194 283 -121
593 -208 883 -248 25 -3 57 -8 71 -10 192 -30 697 -24 907 10 21 4 54 9 73 11
19 3 46 7 60 10 14 2 39 7 55 10 121 23 322 77 455 122 558 189 1090 542 1480
982 36 41 70 79 76 85 6 6 48 61 94 121 150 197 277 405 383 628 26 53 47 99
47 102 0 2 11 28 24 57 57 127 151 421 182 573 17 81 54 301 59 350 4 33 9 71
11 85 9 47 11 525 4 605 -15 157 -21 210 -25 225 -2 8 -7 35 -10 60 -17 129
-80 384 -136 552 -350 1043 -1171 1861 -2221 2212 -156 52 -409 114 -538 131
-19 3 -46 7 -60 10 -13 2 -52 7 -86 11 -33 3 -74 8 -90 10 -33 5 -540 14 -546
9z"/>
</g>
</svg>
