<?xml version="1.0" encoding="UTF-8"?>
<svg id="_レイヤー_2" data-name="レイヤー 2" xmlns="http://www.w3.org/2000/svg" viewBox="0 0 327.88 327.88">
  <defs>
    <style>
      .cls-1, .cls-2 {
        stroke-width: 0px;
      }

      .cls-1, .cls-3 {
        fill: #231815;
      }

      .cls-2, .cls-4 {
        fill: #f7f7f7;
      }

      .cls-4 {
        stroke-width: .3px;
      }

      .cls-4, .cls-3 {
        stroke: #231815;
        stroke-miterlimit: 10;
      }
    </style>
  </defs>
  <g id="_レイヤー_1-2" data-name="レイヤー 1">
    <circle class="cls-3" cx="163.94" cy="163.94" r="163.44"/>
    <circle class="cls-4" cx="167.21" cy="167.21" r="55.57"/>
    <circle class="cls-1" cx="167.21" cy="167.21" r="9.81"/>
    <path class="cls-2" d="m249.98,24.97l-51.11,96.58s-.95-2.32,8.21,6.96l83.67-67.68s-13.57-17.93-40.77-35.86Z"/>
    <path class="cls-2" d="m82.71,305.02l51.11-96.58s.95,2.32-8.21-6.96l-83.67,67.68s13.57,17.93,40.77,35.86Z"/>
    <g>
      <path class="cls-1" d="m139.77,143.2c-.32.1-.94.39-1.48,1.01-.9,1.04-.6,1.98-.05,2.45.74.64,1.51.51,2.8-.12,1.56-.76,2.71-.84,3.79.08,1.2,1.02,1.37,2.68-.02,4.28-.58.67-1.43,1.23-2.02,1.37l-.49-.81c.61-.17,1.33-.6,1.85-1.2.87-1,.83-2.05.02-2.75-.74-.64-1.54-.63-2.78,0-1.4.76-2.72.95-3.76.06-1.14-.98-1.19-2.62,0-3.98.61-.7,1.26-1.09,1.68-1.22l.47.83Z"/>
      <path class="cls-1" d="m154,141.79l-.87.74-2.9-1.77-2.62,2.22,1.31,3.13-.84.71-3.97-9.71.95-.8,8.95,5.49Zm-4.5-1.55l-2.66-1.62c-.6-.39-1.14-.76-1.62-1.12l-.03.03c.29.54.56,1.14.83,1.73l1.19,2.92,2.28-1.93Z"/>
      <path class="cls-1" d="m161.62,137.64l-1.12.57-5.14-2.99-.32,1.39,1.79,3.49-.95.49-4.56-8.89.95-.49,2.23,4.34.04-.02c.04-.45.12-.9.19-1.31l.93-4.75,1.17-.6-1.14,5.36,5.94,3.41Z"/>
      <path class="cls-1" d="m170.01,136.38l-1.13.14-1.45-3.07-3.41.42-.64,3.33-1.09.13,2.03-10.29,1.24-.15,4.46,9.48Zm-2.91-3.76l-1.32-2.81c-.29-.65-.53-1.25-.73-1.82h-.04c-.05.62-.16,1.26-.26,1.91l-.61,3.09,2.97-.37Z"/>
      <path class="cls-1" d="m178.15,138.77l-1.02-.33-1.34-5.97c-.28-1.26-.53-2.52-.64-3.72h-.05c-.31,1.24-.66,2.35-1.2,3.99l-1.37,4.19-.96-.31,3.12-9.5,1.07.34,1.38,5.98c.29,1.35.51,2.51.61,3.64h.03c.34-1.36.68-2.5,1.17-4l1.36-4.14.97.32-3.12,9.5Z"/>
      <path class="cls-1" d="m189.83,141.15c-2.19,2.73-4.79,2.86-6.6,1.4-1.9-1.53-2.04-4.13-.09-6.55,2.03-2.52,4.69-2.92,6.61-1.38,1.96,1.58,1.96,4.18.08,6.52Zm-5.79-4.46c-1.32,1.65-1.77,3.94-.21,5.19,1.58,1.27,3.67.38,5.09-1.39,1.25-1.55,1.87-3.87.23-5.19-1.69-1.36-3.79-.26-5.11,1.39Z"/>
      <path class="cls-1" d="m195.69,149.71c-2.33,1.9-4.2,1.44-5.44-.09-1.16-1.43-1.24-3.26,1.1-5.16l4.68-3.81.68.84-4.69,3.82c-1.76,1.43-1.85,2.78-1.03,3.79.9,1.11,2.25,1.23,3.97-.17l4.69-3.81.68.83-4.63,3.77Z"/>
      <path class="cls-1" d="m197.18,159.3l-2.81-4.41,8.44-5.32,2.69,4.23-.77.49-2.11-3.31-2.86,1.8,1.98,3.12-.76.48-1.98-3.12-3.27,2.06,2.23,3.5-.78.49Z"/>
    </g>
    <g>
      <path class="cls-1" d="m140.62,178.3c.17.79-.25,1.55-1.07,2.3-1.09,1-1.73,1.62-1.96,1.98l-.56-.96c.17-.28.82-.91,1.76-1.76,1.05-.94,1.31-1.72.72-2.73l-.6-1.04-3.8,2.22-.54-.93,8.47-4.95c.41.46.91,1.16,1.3,1.83.64,1.11.84,1.97.65,2.75-.14.62-.59,1.2-1.23,1.57-1.14.66-2.27.41-3.12-.3l-.03.02Zm-.35-1.53c.69,1.19,1.81,1.55,2.84.94,1.27-.75,1.11-1.93.51-2.96-.29-.5-.55-.84-.7-1l-3.29,1.92.64,1.1Z"/>
      <path class="cls-1" d="m142.82,189.77l-3.17-4.14,7.9-6.08,3.04,3.96-.73.56-2.38-3.1-2.68,2.06,2.24,2.91-.72.55-2.24-2.91-3.06,2.35,2.52,3.28-.73.56Z"/>
      <path class="cls-1" d="m151.45,196.86c-.49-.11-1.32-.5-2.2-1.21-1.97-1.6-2.52-4.19-.38-6.81,2.04-2.5,4.85-2.81,7.09-.98.92.74,1.29,1.37,1.44,1.69l-.8.54c-.21-.46-.59-1.01-1.19-1.49-1.74-1.42-3.89-1.2-5.63.93-1.66,2.04-1.55,4.12.25,5.58.58.47,1.26.8,1.8.93l-.37.83Z"/>
      <path class="cls-1" d="m165.03,197.92c-1.04,3.35-3.41,4.41-5.64,3.71-2.34-.73-3.42-3.12-2.49-6.08.96-3.09,3.3-4.43,5.66-3.68,2.41.76,3.36,3.2,2.47,6.06Zm-7.05-2.06c-.63,2.02-.2,4.32,1.71,4.92,1.94.61,3.56-.98,4.24-3.14.6-1.92.32-4.3-1.7-4.93-2.08-.66-3.63,1.13-4.26,3.15Z"/>
      <path class="cls-1" d="m173.11,197.65c.79.15,1.34.82,1.71,1.87.49,1.39.83,2.23,1.07,2.58l-1.11.15c-.19-.27-.52-1.1-.94-2.3-.46-1.34-1.08-1.88-2.24-1.72l-1.2.16.57,4.37-1.07.14-1.27-9.74c.59-.21,1.43-.4,2.2-.5,1.27-.17,2.14-.03,2.79.45.52.37.88,1.01.97,1.74.17,1.31-.5,2.25-1.5,2.77v.04Zm-1.55-.27c1.37-.19,2.14-1.08,1.98-2.27-.19-1.47-1.34-1.77-2.54-1.62-.58.08-.98.19-1.2.27l.49,3.79,1.26-.17Z"/>
      <path class="cls-1" d="m176.89,191.29c.61-.41,1.34-.85,2.17-1.24,3.6-1.68,5.63-.01,6.66,2.21.66,1.43.85,2.83.41,4.12-.41,1.19-1.51,2.25-3.14,3.01-.74.34-1.39.62-1.99.81l-4.11-8.91Zm4.74,7.69c.32-.09.75-.27,1.17-.47,2.43-1.13,3.12-3.14,1.92-5.73-1.09-2.35-2.92-3.04-5.25-1.95-.57.26-.99.53-1.26.73l3.43,7.42Z"/>
      <path class="cls-1" d="m189.02,183.97c-.33.07-.96.32-1.54.91-.96.98-.72,1.93-.21,2.45.7.69,1.47.61,2.79.07,1.6-.65,2.75-.65,3.77.35,1.12,1.11,1.19,2.77-.3,4.28-.63.63-1.5,1.12-2.1,1.23l-.43-.84c.62-.13,1.36-.5,1.92-1.07.93-.94.96-1.99.2-2.75-.7-.69-1.49-.73-2.76-.19-1.44.66-2.77.76-3.75-.2-1.08-1.06-1.01-2.71.25-3.98.65-.66,1.32-1,1.75-1.1l.41.86Z"/>
    </g>
  </g>
</svg>