<?xml version="1.0" encoding="utf-8"?>
<!-- Generator: Adobe Illustrator 27.8.1, SVG Export Plug-In . SVG Version: 6.00 Build 0)  -->
<svg version="1.1" id="レイヤー_1" xmlns="http://www.w3.org/2000/svg" xmlns:xlink="http://www.w3.org/1999/xlink" x="0px"
	 y="0px" viewBox="0 0 210 58" style="enable-background:new 0 0 210 58;" xml:space="preserve">
<style type="text/css">
	.st0{stroke:#000000;stroke-miterlimit:10;}
	.st1{fill:#F7F8F8;stroke:#000000;stroke-width:0.3;stroke-miterlimit:10;}
	.st2{fill:#F7F8F8;}
</style>
<g>
	<g>
		<path d="M77.76,10.69c-0.45-1.58-1.19-3.14-3.67-3.14c-2.06,0-2.77,1.37-2.77,2.62c0,1.66,1.16,2.5,3.35,3.53
			c3.17,1.49,4.54,2.59,4.54,4.87c0,2.52-2.4,4.44-5.81,4.44c-1.58,0-2.96-0.41-4.04-0.79c-0.21-0.67-0.53-2.3-0.71-3.6l0.82-0.19
			c0.53,1.61,1.69,3.7,4.43,3.7c1.9,0,3.06-1.2,3.06-2.76c0-1.85-1.08-2.59-3.41-3.74c-2.77-1.37-4.33-2.52-4.33-4.75
			c0-2.14,1.95-4.15,5.44-4.15c1.48,0,2.93,0.36,3.48,0.46c0.11,0.86,0.21,1.82,0.42,3.38L77.76,10.69z"/>
		<path d="M90.48,22.65v-0.67c1.72-0.19,1.93-0.43,1.56-1.34c-0.34-0.94-0.87-2.14-1.43-3.65h-5.7c-0.42,1.08-0.82,2.02-1.19,3
			c-0.58,1.56-0.21,1.75,1.95,1.99v0.67h-6.1v-0.67c1.66-0.19,2.09-0.36,3.01-2.52l5.46-12.6l0.84-0.14
			c1.66,4.1,3.48,8.64,5.15,12.79c0.84,2.09,1.08,2.28,2.96,2.47v0.67H90.48z M87.84,9.85C87,11.92,86.1,14.1,85.31,16h4.94
			L87.84,9.85z"/>
		<path d="M97.67,7.05h7.05v0.67c-2.06,0.17-2.43,0.34-2.43,2.47v4.13c0.53-0.05,1.13-0.43,1.9-1.1c1.48-1.27,3.25-2.9,4.46-4.15
			c0.79-0.82,0.71-1.13-0.42-1.27l-0.74-0.07V7.05h6.42v0.67c-1.98,0.22-2.67,0.34-4.44,1.99c-0.79,0.7-2.85,2.52-4.54,4.03
			c2.01,2.16,4.94,5.23,6.31,6.55c1.35,1.32,1.69,1.51,3.33,1.68v0.67h-4.22c-2.03-2.09-4.17-4.42-6.57-6.96
			c-0.61-0.67-1.06-0.72-1.48-0.7v4.56c0,2.09,0.24,2.26,2.43,2.42v0.67h-7.05v-0.67c2.16-0.17,2.38-0.34,2.38-2.42v-9.36
			c0-2.16-0.18-2.33-2.38-2.47V7.05z"/>
		<path d="M123.8,22.65v-0.67c1.72-0.19,1.93-0.43,1.56-1.34c-0.34-0.94-0.87-2.14-1.43-3.65h-5.7c-0.42,1.08-0.82,2.02-1.19,3
			c-0.58,1.56-0.21,1.75,1.95,1.99v0.67h-6.1v-0.67c1.66-0.19,2.09-0.36,3.01-2.52l5.46-12.6l0.84-0.14
			c1.66,4.1,3.48,8.64,5.15,12.79c0.84,2.09,1.08,2.28,2.96,2.47v0.67H123.8z M121.16,9.85c-0.84,2.06-1.74,4.25-2.53,6.14h4.94
			L121.16,9.85z"/>
		<path d="M149.22,7.72c-1.69,0.17-2.24,0.41-2.32,1.51c-0.03,0.77-0.08,1.78-0.08,4.01v9.62h-1l-11.3-12.55v6
			c0,2.16,0.08,3.24,0.13,3.94c0.05,1.22,0.71,1.58,2.61,1.73v0.67h-6.42v-0.67c1.64-0.12,2.27-0.48,2.38-1.66
			c0.08-0.77,0.13-1.85,0.13-4.03v-6.12c0-0.67-0.05-1.06-0.53-1.58c-0.5-0.6-1.06-0.74-2.35-0.86V7.05h3.96l11.19,12.07v-5.88
			c0-2.23-0.05-3.26-0.13-3.98c-0.08-1.08-0.69-1.42-2.8-1.54V7.05h6.52V7.72z"/>
		<path d="M160.05,6.71c4.51,0,8.55,3.14,8.55,7.92c0,5.16-3.85,8.38-8.71,8.38c-5.07,0-8.76-3.5-8.76-8.02
			C151.12,10.69,154.48,6.71,160.05,6.71z M159.52,7.6c-2.96,0-5.65,2.26-5.65,6.74c0,4.46,2.69,7.75,6.44,7.75
			c3.19,0,5.6-2.16,5.6-6.79C165.91,10.26,162.98,7.6,159.52,7.6z"/>
		<path d="M189.06,7.72c-1.66,0.1-2.27,0.48-2.32,1.58c-0.03,0.55-0.08,1.56-0.08,3.77v2.59c0,2.45-0.32,4.32-1.85,5.78
			c-1.24,1.18-3.04,1.54-4.86,1.54c-1.53,0-3.17-0.29-4.33-1.1c-1.58-1.1-2.35-2.76-2.35-5.57v-6.12c0-2.16-0.21-2.3-2.32-2.47V7.05
			h6.94v0.67c-2.11,0.12-2.32,0.31-2.32,2.47v6c0,3.5,1.82,5.42,4.99,5.42c3.75,0,4.94-2.11,4.94-6.1v-2.45
			c0-2.21-0.08-3.12-0.13-3.77c-0.08-1.08-0.69-1.49-2.64-1.58V7.05h6.34V7.72z"/>
		<path d="M204.24,18.83c-0.16,0.62-0.87,3.1-1.14,3.82h-12.83v-0.67c2.46-0.17,2.64-0.38,2.64-2.35v-9.48
			c0-2.14-0.29-2.26-2.27-2.42V7.05h8.08c2.48,0,3.51-0.02,3.83-0.05c0.03,0.6,0.13,2.4,0.24,3.67L202,10.79
			c-0.24-0.82-0.5-1.32-0.79-1.82c-0.42-0.79-1.03-0.96-2.61-0.96h-2.51c-0.82,0-0.87,0.07-0.87,0.77v5.3h2.93
			c1.98,0,2.11-0.36,2.43-1.99h0.82v4.94h-0.82c-0.34-1.73-0.55-1.97-2.46-1.97h-2.9v4.78c0,1.68,0.58,1.82,1.9,1.85h2.46
			c1.61,0,1.87-0.22,2.46-0.84c0.5-0.5,1.06-1.49,1.43-2.21L204.24,18.83z"/>
	</g>
</g>
<circle class="st0" cx="41" cy="29" r="25"/>
<circle class="st1" cx="41.5" cy="29.5" r="8.5"/>
<circle cx="159" cy="15" r="10"/>
<circle cx="41.5" cy="29.5" r="1.5"/>
<g>
	<g>
		<path d="M102.14,47.56c-0.23,0-0.43-0.02-0.66-0.04c-1.3-0.09-2-0.43-2.78-1.55c-0.66-0.92-1.3-2.05-1.87-2.97
			c-0.36-0.58-0.59-0.68-1.5-0.68H94.7v2.83c0,1.53,0.2,1.62,1.62,1.76v0.5h-4.76v-0.5c1.48-0.16,1.6-0.23,1.6-1.76v-7.18
			c0-1.53-0.2-1.58-1.6-1.75v-0.5h4.54c1.3,0,2.17,0.16,2.85,0.61c0.73,0.47,1.21,1.28,1.21,2.38c0,1.55-0.98,2.52-2.3,3.1
			c0.32,0.56,1.09,1.76,1.62,2.57c0.66,0.95,1,1.4,1.41,1.85c0.48,0.52,0.89,0.72,1.3,0.83L102.14,47.56z M95.56,41.71
			c0.93,0,1.52-0.14,1.96-0.52c0.69-0.52,0.98-1.24,0.98-2.21c0-1.93-1.27-2.63-2.64-2.63c-0.52,0-0.82,0.07-0.94,0.18
			c-0.16,0.12-0.21,0.31-0.21,0.77v4.41H95.56z"/>
		<path d="M113.52,44.55c-0.11,0.47-0.59,2.32-0.77,2.86h-8.66v-0.5c1.66-0.13,1.78-0.29,1.78-1.76v-7.11c0-1.6-0.2-1.69-1.53-1.82
			v-0.5h5.45c1.68,0,2.37-0.02,2.58-0.04c0.02,0.45,0.09,1.8,0.16,2.75l-0.54,0.09c-0.16-0.61-0.34-0.99-0.53-1.37
			c-0.29-0.59-0.7-0.72-1.76-0.72h-1.69c-0.55,0-0.59,0.05-0.59,0.58v3.98h1.98c1.34,0,1.43-0.27,1.64-1.49h0.55v3.71h-0.55
			c-0.23-1.3-0.38-1.48-1.66-1.48h-1.96v3.58c0,1.26,0.39,1.37,1.28,1.39h1.66c1.09,0,1.27-0.16,1.66-0.63
			c0.34-0.38,0.71-1.12,0.96-1.66L113.52,44.55z"/>
		<path d="M127.24,44.53c-0.25,0.86-0.71,2.16-0.98,2.72c-0.52,0.11-1.91,0.43-3.26,0.43c-4.26,0-6.43-2.86-6.43-6.01
			c0-3.67,2.76-6.21,6.75-6.21c1.53,0,2.78,0.32,3.37,0.41c0.07,0.81,0.2,1.89,0.34,2.79l-0.55,0.12c-0.36-1.21-0.78-1.94-1.69-2.32
			c-0.46-0.22-1.19-0.34-1.87-0.34c-2.94,0-4.49,2.2-4.49,5.17c0,3.48,1.78,5.71,4.67,5.71c1.82,0,2.71-0.85,3.62-2.65L127.24,44.53
			z"/>
		<path d="M136.63,35.46c3.05,0,5.77,2.36,5.77,5.94c0,3.87-2.6,6.28-5.88,6.28c-3.42,0-5.92-2.63-5.92-6.01
			C130.61,38.45,132.87,35.46,136.63,35.46z M136.28,36.12c-2,0-3.81,1.69-3.81,5.06c0,3.35,1.82,5.82,4.35,5.82
			c2.16,0,3.78-1.62,3.78-5.1C140.59,38.12,138.61,36.12,136.28,36.12z"/>
		<path d="M156.4,47.56c-0.23,0-0.43-0.02-0.66-0.04c-1.3-0.09-2-0.43-2.78-1.55c-0.66-0.92-1.3-2.05-1.87-2.97
			c-0.36-0.58-0.59-0.68-1.5-0.68h-0.62v2.83c0,1.53,0.2,1.62,1.62,1.76v0.5h-4.76v-0.5c1.48-0.16,1.6-0.23,1.6-1.76v-7.18
			c0-1.53-0.2-1.58-1.6-1.75v-0.5h4.54c1.3,0,2.17,0.16,2.85,0.61c0.73,0.47,1.21,1.28,1.21,2.38c0,1.55-0.98,2.52-2.3,3.1
			c0.32,0.56,1.09,1.76,1.62,2.57c0.66,0.95,1,1.4,1.41,1.85c0.48,0.52,0.89,0.72,1.3,0.83L156.4,47.56z M149.82,41.71
			c0.93,0,1.51-0.14,1.96-0.52c0.69-0.52,0.98-1.24,0.98-2.21c0-1.93-1.26-2.63-2.64-2.63c-0.52,0-0.82,0.07-0.95,0.18
			c-0.16,0.12-0.21,0.31-0.21,0.77v4.41H149.82z"/>
		<path d="M163.49,35.71c2.51,0,4.1,0.5,5.2,1.57c0.87,0.86,1.51,2.12,1.51,3.85c0,2.11-0.86,3.82-2.23,4.86
			c-1.35,1.03-3.08,1.42-5.28,1.42h-4.17v-0.5c1.53-0.14,1.6-0.27,1.6-1.75v-7.18c0-1.55-0.21-1.62-1.6-1.76v-0.5H163.49z
			 M161.69,45.02c0,1.35,0.57,1.73,1.91,1.73c3.21,0,4.85-2.21,4.85-5.37c0-1.96-0.66-3.46-2.07-4.32
			c-0.82-0.52-1.85-0.72-3.05-0.72c-0.8,0-1.23,0.11-1.41,0.25c-0.16,0.11-0.23,0.31-0.23,1.01V45.02z"/>
		<path d="M179.81,38.45c-0.3-1.19-0.8-2.36-2.48-2.36c-1.39,0-1.87,1.03-1.87,1.96c0,1.24,0.78,1.87,2.26,2.65
			c2.14,1.12,3.07,1.94,3.07,3.66c0,1.89-1.62,3.33-3.92,3.33c-1.07,0-2-0.31-2.73-0.59c-0.14-0.5-0.36-1.73-0.48-2.7l0.55-0.14
			c0.36,1.21,1.14,2.77,2.99,2.77c1.28,0,2.07-0.9,2.07-2.07c0-1.39-0.73-1.94-2.3-2.81c-1.87-1.03-2.92-1.89-2.92-3.57
			c0-1.6,1.32-3.11,3.67-3.11c1,0,1.98,0.27,2.35,0.34c0.07,0.65,0.14,1.37,0.29,2.54L179.81,38.45z"/>
	</g>
</g>
<circle class="st2" cx="159" cy="15" r="2.94"/>
<path class="st2" d="M54.16,7.74l-7.82,14.77c0,0-0.15-0.36,1.26,1.06l12.8-10.35C60.4,13.23,58.32,10.48,54.16,7.74z"/>
<path class="st2" d="M164.22,7.05l-3.05,5.77c0,0-0.06-0.14,0.49,0.42l5-4.04C166.65,9.19,165.84,8.12,164.22,7.05z"/>
<path class="st2" d="M28.57,50.58l7.82-14.77c0,0,0.14,0.36-1.26-1.06l-12.8,10.35C22.34,45.09,24.41,47.84,28.57,50.58z"/>
<path class="st2" d="M154.18,23.82l3.05-5.76c0,0,0.06,0.14-0.49-0.42l-4.99,4.04C151.75,21.68,152.56,22.75,154.18,23.82z"/>
<g>
	<path d="M37.3,25.83c-0.05,0.01-0.14,0.06-0.23,0.15c-0.14,0.16-0.09,0.3-0.01,0.37c0.11,0.1,0.23,0.08,0.43-0.02
		c0.24-0.12,0.42-0.13,0.58,0.01c0.18,0.16,0.21,0.41,0,0.65c-0.09,0.1-0.22,0.19-0.31,0.21l-0.07-0.12
		c0.09-0.03,0.2-0.09,0.28-0.18c0.13-0.15,0.13-0.31,0-0.42c-0.11-0.1-0.24-0.1-0.42,0c-0.21,0.12-0.42,0.15-0.58,0.01
		c-0.17-0.15-0.18-0.4,0-0.61c0.09-0.11,0.19-0.17,0.26-0.19L37.3,25.83z"/>
	<path d="M39.48,25.61l-0.13,0.11l-0.44-0.27l-0.4,0.34l0.2,0.48l-0.13,0.11l-0.61-1.49l0.15-0.12L39.48,25.61z M38.79,25.37
		l-0.41-0.25c-0.09-0.06-0.17-0.12-0.25-0.17l0,0c0.04,0.08,0.09,0.17,0.13,0.27l0.18,0.45L38.79,25.37z"/>
	<path d="M40.65,24.98l-0.17,0.09l-0.79-0.46l-0.05,0.21l0.27,0.53l-0.15,0.07l-0.7-1.36l0.15-0.07l0.34,0.66l0.01,0
		c0.01-0.07,0.02-0.14,0.03-0.2l0.14-0.73l0.18-0.09l-0.17,0.82L40.65,24.98z"/>
	<path d="M41.93,24.78l-0.17,0.02l-0.22-0.47l-0.52,0.06l-0.1,0.51l-0.17,0.02l0.31-1.57l0.19-0.02L41.93,24.78z M41.48,24.21
		l-0.2-0.43c-0.04-0.1-0.08-0.19-0.11-0.28l-0.01,0c-0.01,0.09-0.02,0.19-0.04,0.29l-0.09,0.47L41.48,24.21z"/>
	<path d="M43.17,25.15l-0.16-0.05l-0.21-0.91c-0.04-0.19-0.08-0.39-0.1-0.57l-0.01,0c-0.05,0.19-0.1,0.36-0.18,0.61l-0.21,0.64
		l-0.15-0.05l0.48-1.45l0.16,0.05l0.21,0.92c0.04,0.21,0.08,0.38,0.09,0.56l0,0c0.05-0.21,0.1-0.38,0.18-0.61l0.21-0.63l0.15,0.05
		L43.17,25.15z"/>
	<path d="M44.96,25.51c-0.34,0.42-0.73,0.44-1.01,0.21c-0.29-0.23-0.31-0.63-0.01-1c0.31-0.39,0.72-0.45,1.01-0.21
		C45.25,24.76,45.25,25.16,44.96,25.51z M44.07,24.83c-0.2,0.25-0.27,0.6-0.03,0.79c0.24,0.19,0.56,0.06,0.78-0.21
		c0.19-0.24,0.29-0.59,0.03-0.79C44.6,24.41,44.28,24.58,44.07,24.83z"/>
	<path d="M45.86,26.82c-0.36,0.29-0.64,0.22-0.83-0.01c-0.18-0.22-0.19-0.5,0.17-0.79l0.72-0.58l0.1,0.13l-0.72,0.58
		c-0.27,0.22-0.28,0.42-0.16,0.58c0.14,0.17,0.34,0.19,0.61-0.03l0.72-0.58l0.1,0.13L45.86,26.82z"/>
	<path d="M46.08,28.29l-0.43-0.67l1.29-0.81l0.41,0.65l-0.12,0.07l-0.32-0.51l-0.44,0.28l0.3,0.48l-0.12,0.07l-0.3-0.48l-0.5,0.31
		l0.34,0.54L46.08,28.29z"/>
</g>
<g>
	<path d="M37.43,31.2c0.03,0.12-0.04,0.24-0.16,0.35c-0.17,0.15-0.26,0.25-0.3,0.3l-0.09-0.15c0.03-0.04,0.12-0.14,0.27-0.27
		c0.16-0.14,0.2-0.26,0.11-0.42l-0.09-0.16l-0.58,0.34l-0.08-0.14l1.29-0.76c0.06,0.07,0.14,0.18,0.2,0.28
		c0.1,0.17,0.13,0.3,0.1,0.42c-0.02,0.09-0.09,0.18-0.19,0.24C37.74,31.34,37.57,31.3,37.43,31.2L37.43,31.2z M37.38,30.96
		c0.11,0.18,0.28,0.24,0.44,0.14c0.19-0.11,0.17-0.29,0.08-0.45c-0.04-0.08-0.08-0.13-0.11-0.15l-0.5,0.29L37.38,30.96z"/>
	<path d="M37.77,32.95l-0.48-0.63l1.21-0.93l0.46,0.61l-0.11,0.08l-0.36-0.47l-0.41,0.32l0.34,0.45l-0.11,0.08L37.96,32l-0.47,0.36
		l0.38,0.5L37.77,32.95z"/>
	<path d="M39.09,34.04c-0.08-0.02-0.2-0.08-0.34-0.19c-0.3-0.24-0.38-0.64-0.06-1.04c0.31-0.38,0.74-0.43,1.08-0.15
		c0.14,0.11,0.2,0.21,0.22,0.26L39.88,33c-0.03-0.07-0.09-0.15-0.18-0.23c-0.27-0.22-0.6-0.18-0.86,0.14
		c-0.25,0.31-0.24,0.63,0.04,0.85c0.09,0.07,0.19,0.12,0.27,0.14L39.09,34.04z"/>
	<path d="M41.17,34.2c-0.16,0.51-0.52,0.67-0.86,0.57c-0.36-0.11-0.52-0.48-0.38-0.93c0.15-0.47,0.5-0.68,0.87-0.56
		C41.16,33.39,41.3,33.76,41.17,34.2z M40.09,33.88c-0.1,0.31-0.03,0.66,0.26,0.75c0.3,0.09,0.54-0.15,0.65-0.48
		c0.09-0.29,0.05-0.66-0.26-0.75C40.42,33.3,40.19,33.57,40.09,33.88z"/>
	<path d="M42.4,34.16c0.12,0.02,0.2,0.13,0.26,0.29c0.08,0.21,0.13,0.34,0.16,0.39l-0.17,0.02c-0.03-0.04-0.08-0.17-0.14-0.35
		c-0.07-0.21-0.17-0.29-0.34-0.26l-0.18,0.02l0.09,0.67l-0.16,0.02l-0.19-1.49c0.09-0.03,0.22-0.06,0.34-0.08
		c0.19-0.03,0.33,0,0.43,0.07c0.08,0.06,0.13,0.15,0.15,0.27C42.66,33.93,42.55,34.07,42.4,34.16L42.4,34.16z M42.16,34.12
		c0.21-0.03,0.33-0.17,0.3-0.35c-0.03-0.22-0.21-0.27-0.39-0.25c-0.09,0.01-0.15,0.03-0.18,0.04l0.08,0.58L42.16,34.12z"/>
	<path d="M42.98,33.18c0.09-0.06,0.2-0.13,0.33-0.19c0.55-0.26,0.86,0,1.02,0.34c0.1,0.22,0.13,0.43,0.06,0.63
		c-0.06,0.18-0.23,0.34-0.48,0.46c-0.11,0.05-0.21,0.09-0.3,0.12L42.98,33.18z M43.71,34.36c0.05-0.01,0.11-0.04,0.18-0.07
		c0.37-0.17,0.48-0.48,0.29-0.88c-0.17-0.36-0.45-0.46-0.8-0.3c-0.09,0.04-0.15,0.08-0.19,0.11L43.71,34.36z"/>
	<path d="M44.84,32.06c-0.05,0.01-0.15,0.05-0.24,0.14c-0.15,0.15-0.11,0.3-0.03,0.37c0.11,0.11,0.22,0.09,0.43,0.01
		c0.24-0.1,0.42-0.1,0.58,0.05c0.17,0.17,0.18,0.42-0.05,0.65c-0.1,0.1-0.23,0.17-0.32,0.19l-0.07-0.13
		c0.1-0.02,0.21-0.08,0.29-0.16c0.14-0.14,0.15-0.3,0.03-0.42c-0.11-0.11-0.23-0.11-0.42-0.03c-0.22,0.1-0.42,0.12-0.57-0.03
		c-0.16-0.16-0.15-0.41,0.04-0.61c0.1-0.1,0.2-0.15,0.27-0.17L44.84,32.06z"/>
</g>
</svg>
